<svg width="238" height="46" viewBox="0 0 238 46" fill="none" xmlns="http://www.w3.org/2000/svg">
<rect width="238" height="46" rx="2" fill="black"/>
<path d="M100.071 21C99.6928 18.9119 98.0224 17.679 95.9741 17.679C93.369 17.679 91.4798 19.6875 91.4798 22.9091C91.4798 26.1307 93.369 28.1392 95.9741 28.1392C98.0224 28.1392 99.6928 26.9062 100.071 24.8182H98.8377C98.5394 26.2301 97.3263 26.9858 95.9741 26.9858C94.1246 26.9858 92.6729 25.554 92.6729 22.9091C92.6729 20.2642 94.1246 18.8324 95.9741 18.8324C97.3263 18.8324 98.5394 19.5881 98.8377 21H100.071ZM105.006 28.1591C107.074 28.1591 108.466 26.5881 108.466 24.2216C108.466 21.8352 107.074 20.2642 105.006 20.2642C102.938 20.2642 101.546 21.8352 101.546 24.2216C101.546 26.5881 102.938 28.1591 105.006 28.1591ZM105.006 27.1051C103.435 27.1051 102.719 25.7528 102.719 24.2216C102.719 22.6903 103.435 21.3182 105.006 21.3182C106.577 21.3182 107.293 22.6903 107.293 24.2216C107.293 25.7528 106.577 27.1051 105.006 27.1051ZM109.78 26.0511C109.82 27.304 111.018 28.1591 112.644 28.1591C114.314 28.1591 115.527 27.2642 115.527 25.8722C115.527 24.9176 114.956 24.142 114.096 24.0824V24.0028C114.821 23.7791 115.368 23.2521 115.368 22.392C115.368 21.1839 114.334 20.2642 112.723 20.2642C111.132 20.2642 109.999 21.1392 109.959 22.3722H111.192C111.227 21.7408 111.888 21.2983 112.783 21.2983C113.673 21.2983 114.175 21.7507 114.175 22.4318C114.175 23.0682 113.738 23.5455 112.803 23.5455H111.49V24.5994H112.803C113.738 24.5994 114.334 25.1115 114.334 25.8722C114.334 26.7422 113.564 27.1051 112.624 27.1051C111.704 27.1051 111.088 26.7422 111.033 26.0511H109.78ZM116.36 30.1875H117.533V28H123.181V30.1875H124.354V26.9062H123.181V20.3636H118.329L118.07 23.3864C117.886 25.5241 117.613 26.2599 116.996 26.9062H116.36V30.1875ZM118.329 26.9062C118.866 26.2003 119.06 24.9822 119.224 23.3864L119.423 21.4574H122.008V26.9062H118.329ZM128.159 28.179C129.491 28.179 130.187 27.4631 130.426 26.9659H130.486V28H131.659V22.9688C131.659 20.5426 129.809 20.2642 128.835 20.2642C127.682 20.2642 126.369 20.6619 125.773 22.054L126.886 22.4517C127.145 21.8949 127.756 21.2983 128.875 21.2983C129.954 21.2983 130.486 21.87 130.486 22.8494V22.8892C130.486 23.456 129.909 23.4062 128.517 23.5852C127.1 23.7692 125.554 24.0824 125.554 25.8324C125.554 27.3239 126.707 28.179 128.159 28.179ZM128.338 27.125C127.403 27.125 126.727 26.7074 126.727 25.892C126.727 24.9972 127.542 24.7188 128.457 24.5994C128.954 24.5398 130.287 24.4006 130.486 24.1619V25.2358C130.486 26.1903 129.73 27.125 128.338 27.125ZM132.761 21.4574H135.287V28H136.46V21.4574H138.966V20.3636H132.761V21.4574ZM141.851 23.1278V20.3636H140.677V28H143.879C145.669 28 146.643 26.9062 146.643 25.5341C146.643 24.142 145.669 23.1278 143.879 23.1278H141.851ZM141.851 24.2216H143.879C144.809 24.2216 145.47 24.7884 145.47 25.5938C145.47 26.3643 144.809 26.9062 143.879 26.9062H141.851V24.2216Z" fill="white"/>
</svg>
